# xmcd CD database file
#
# Track frame offsets:
#	150
#	17532
#	41485
#	65130
#	80665
#	97487
#	117500
#	132495
#	149675
#	168115
#	193730
#
# Disc length: 3036 seconds
#
# Revision: 9
# Processed by: cddbd v1.5.2PL0 Copyright (c) Steve Scherf et al.
# Submitted via: CDex 1.72
#
DISCID=a80bda0b
DTITLE=Dement, Iris (USA-96-The Way I Should-flk) - The Way I Should
DYEAR=1996
DGENRE=Folk
TTITLE0=When My Mornin' Comes Around
TTITLE1=There's A Wall In Washington
TTITLE2=Wasteland Of The Free
TTITLE3=I'll Take My Sorrow Straight
TTITLE4=This Kind Of Happy
TTITLE5=The Way I Should
TTITLE6=Letter To Mom
TTITLE7=Keep Me God
TTITLE8=Quality Time
TTITLE9=Walkin' Home
TTITLE10=Trouble (Duet With Delbert McClinton)
EXTD=Submitted 6/27/97\n[Jmccoy@efn.org] YEAR: 1996
EXTT0=
EXTT1=
EXTT2=
EXTT3=
EXTT4=
EXTT5=
EXTT6=
EXTT7=
EXTT8=
EXTT9=
EXTT10=
PLAYORDER=
